<?xml version="1.0" encoding="UTF-8" standalone="yes"?>
<!-- Created with sK1/UniConvertor (http://sk1project.org/) -->
<svg xmlns="http://www.w3.org/2000/svg" xmlns:xlink="http://www.w3.org/1999/xlink" viewBox="0 0 1 1">
	<g>
		<path d="M 0.7920481294658775 0.9058421984903517
				A 0.5000000000000013 0.5000000000000013 0 0  1 0.7054455890874336 0.9558421984903519
				L 0.6551300781406229 0.868693177121688
				A 0.3999999999999996 0.3999999999999996 0 0  1 0.5500000000000002 0.8968626966596887
				L 0.5500000000000002 0.99749371855331
				A 0.5000000000000004 0.5000000000000004 0 0  1 0.4500000000000002 0.99749371855331
				L 0.4500000000000002 0.8968626966596887
				A 0.39999999999999947 0.39999999999999947 0 0  1 0.3448699218593778 0.8686931771216881
				L 0.2945544109125671 0.9558421984903523
				A 0.5000000000000003 0.5000000000000003 0 0  1 0.2079518705341232 0.9058421984903525
				L 0.2582673814809341 0.8186931771216883
				A 0.40000000000000024 0.40000000000000024 0 0  1 0.1813068228783119 0.7417326185190665
				L 0.0941578015096478 0.7920481294658771
				A 0.5000000000000004 0.5000000000000004 0 0  1 0.0441578015096478 0.7054455890874333
				L 0.1313068228783119 0.6551300781406226
				A 0.39999999999999886 0.39999999999999886 0 0  1 0.1031373033403113 0.5500000000000003
				L 0.0025062814466899 0.5500000000000006
				A 0.5000000000000004 0.5000000000000004 0 0  1 0.0025062814466898 0.4500000000000006
				L 0.1031373033403113 0.4500000000000004
				A 0.39999999999999947 0.39999999999999947 0 0  1 0.1313068228783117 0.3448699218593778
				L 0.0441578015096475 0.2945544109125673
				A 0.5000000000000007 0.5000000000000007 0 0  1 0.0941578015096475 0.2079518705341234
				L 0.1813068228783117 0.258267381480934
				A 0.3999999999999984 0.3999999999999984 0 0  1 0.2582673814809333 0.1813068228783122
				L 0.2079518705341225 0.0941578015096482
				A 0.5000000000000004 0.5000000000000004 0 0  1 0.2945544109125663 0.0441578015096481
				L 0.3448699218593773 0.1313068228783122
				A 0.39999999999999974 0.39999999999999974 0 0  1 0.4499999999999997 0.1031373033403114
				L 0.4499999999999997 0.0025062814466899
				A 0.500000000000001 0.500000000000001 0 0  1 0.5499999999999994 0.0025062814466899
				L 0.5499999999999993 0.1031373033403112
				A 0.4000000000000015 0.4000000000000015 0 0  1 0.6551300781406222 0.1313068228783118
				L 0.7054455890874328 0.0441578015096477
				A 0.4999999999999997 0.4999999999999997 0 0  1 0.7920481294658765 0.0941578015096476
				L 0.7417326185190661 0.1813068228783116
				A 0.399999999999999 0.399999999999999 0 0  1 0.8186931771216877 0.2582673814809334
				L 0.9058421984903514 0.2079518705341225
				A 0.5000000000000009 0.5000000000000009 0 0  1 0.9558421984903517 0.2945544109125663
				L 0.8686931771216876 0.3448699218593768
				A 0.40000000000000074 0.40000000000000074 0 0  1 0.8968626966596887 0.4499999999999994
				L 0.99749371855331 0.4499999999999992
				A 0.5000000000000004 0.5000000000000004 0 0  1 0.99749371855331 0.5499999999999992
				L 0.8968626966596888 0.5499999999999998
				A 0.3999999999999989 0.3999999999999989 0 0  1 0.868693177121688 0.6551300781406223
				L 0.9558421984903523 0.7054455890874328
				A 0.5 0.5 0 0  1 0.9058421984903525 0.7920481294658767
				L 0.8186931771216887 0.7417326185190656
				A 0.39999999999999886 0.39999999999999886 0 0  1 0.7417326185190665 0.8186931771216878
				
				
				M 0.5 0.5
				m -0.25, 0
				a 0.25,0.25 0 1 0 0.5,0
				a 0.25,0.25 0 1 0 -0.5,0
				
				z"/>
	</g>
</svg>