<!DOCTYPE svg PUBLIC "-//W3C//DTD SVG 1.1//EN" "http://www.w3.org/Graphics/SVG/1.1/DTD/svg11.dtd">

<svg version="1.1" xmlns="http://www.w3.org/2000/svg" xmlns:xlink="http://www.w3.org/1999/xlink"
	 width="100%" height="100%" 
	 viewBox="-5 -5 800 800" onload="rotate(evt)" >
 <title>SVG animation using CSS</title>
	<script type="text/ecmascript">
	function rotate(evt) {
	var cog1 = evt.target.ownerDocument.getElementById('cog1');
	var cog2 = evt.target.ownerDocument.getElementById('cog2');

	setInterval(function () {
		var now          = new Date();
		var milliseconds = now.getTime() % 750;
		var degrees      = milliseconds * 0.36;
		var offset = 421;

		cog1.setAttribute('transform', 'rotate(' + degrees + ' ' + offset + ' ' + offset + ' )');
		cog2.setAttribute('transform', 'rotate(' + (-degrees - 15) + ' ' + offset + ' ' + offset + ' )');
      }, 60);
    }
    </script>
	<style>
	.cog {
		stroke-linejoin: round; 
		stroke-linecap: round; 
	}
	.fillsolid {
		stroke: #000000; 
		fill: #ffffe0; 
		opacity: 0.2;
		stroke-width: 2;
	}
	.fillempty {
		fill: black; 
		opacity: 0.75;
		stroke-width: 1;
	}
	</style>
	
    <g transform="scale(0.57)">
        <path class="fillsolid cog" id="cog1"
              d="M 665.331 81.044L
				592.587 39.0453L
				550.323 112.248L
				462.017 88.5865L
				462.017 4.05908L
				378.019 4.05908L
				378.019 88.5865L
				289.713 112.248L
				247.449 39.0453L
				174.705 81.044L
				216.969 154.247L
				152.324 218.892L
				79.1209 176.628L
				37.1222 249.372L
				110.325 291.636L
				86.6635 379.942L
				2.13597 379.942L
				2.13597 463.94L
				86.6635 463.94L
				110.325 552.246L
				37.1222 594.51L
				79.1209 667.254L
				152.324 624.99L
				216.969 689.635L
				174.705 762.838L
				247.449 804.837L
				289.713 731.634L
				378.019 755.296L
				378.019 839.823L
				462.017 839.823L
				462.017 755.296L
				550.323 731.634L
				592.587 804.837L
				665.331 762.838L
				623.067 689.635L
				687.712 624.99L
				760.915 667.254L
				802.914 594.51L
				729.711 552.246L
				753.372 463.94L
				837.9 463.94L
				837.9 379.942L
				753.372 379.942L
				729.711 291.636L
				802.914 249.372L
				760.915 176.628L
				687.712 218.892L
				623.067 154.247L
				665.331 81.044z" />
        <path class="fillempty cog"
              d="M 630.012 421.941C
				  630.012 306.031 535.928 211.947 420.018 211.947C
				  304.108 211.947 210.024 306.031 210.024 421.941C
				  210.024 537.851 304.108 631.935 420.018 631.935C
				  535.928 631.935 630.012 537.851 630.012 421.941z" />				
    </g>

    <g transform="scale(0.57) translate(550 550)">
        <path class="fillsolid cog" id="cog2"
              d="M 665.331 81.044L
				592.587 39.0453L
				550.323 112.248L
				462.017 88.5865L
				462.017 4.05908L
				378.019 4.05908L
				378.019 88.5865L
				289.713 112.248L
				247.449 39.0453L
				174.705 81.044L
				216.969 154.247L
				152.324 218.892L
				79.1209 176.628L
				37.1222 249.372L
				110.325 291.636L
				86.6635 379.942L
				2.13597 379.942L
				2.13597 463.94L
				86.6635 463.94L
				110.325 552.246L
				37.1222 594.51L
				79.1209 667.254L
				152.324 624.99L
				216.969 689.635L
				174.705 762.838L
				247.449 804.837L
				289.713 731.634L
				378.019 755.296L
				378.019 839.823L
				462.017 839.823L
				462.017 755.296L
				550.323 731.634L
				592.587 804.837L
				665.331 762.838L
				623.067 689.635L
				687.712 624.99L
				760.915 667.254L
				802.914 594.51L
				729.711 552.246L
				753.372 463.94L
				837.9 463.94L
				837.9 379.942L
				753.372 379.942L
				729.711 291.636L
				802.914 249.372L
				760.915 176.628L
				687.712 218.892L
				623.067 154.247L
				665.331 81.044z" />
        <path class="fillempty cog"
              d="M 630.012 421.941C
				  630.012 306.031 535.928 211.947 420.018 211.947C
				  304.108 211.947 210.024 306.031 210.024 421.941C
				  210.024 537.851 304.108 631.935 420.018 631.935C
				  535.928 631.935 630.012 537.851 630.012 421.941z" />				
    </g>
</svg>